<svg width="592" height="190"><defs id="SvgjsDefs1470"></defs><g id="SvgjsG1471" featurekey="root" fill="#000000"></g><g id="SvgjsG1472" featurekey="symbol1" fill="#ffffff" transform="matrix(0.8728179883245526,0,0,0.8728179883245526,261,10)"><path d="M79.4,43.2c-3.7,18.3-19.9,32-39.3,32c-19.4,0-35.5-13.7-39.3-32C0.3,45.8,0,48.5,0,51.3c0,22.1,17.9,40.1,40.1,40.1c22.1,0,40.1-17.9,40.1-40.1C80.2,48.5,79.9,45.8,79.4,43.2"></path><path d="M21.7,10.5c-1.8,1.2-3.5,2.6-5.1,4.2c-12.7,12.7-12.7,33.2,0,45.9c6.3,6.3,14.6,9.5,23,9.5c8.3,0,16.6-3.2,23-9.5c1.6-1.6,3-3.3,4.2-5.1C61.2,59,55,60.8,48.8,60.8c-8.3,0-16.6-3.2-23-9.5C14.7,40.2,13.3,23.1,21.7,10.5"></path><path d="M48.7,0C34,0,21.9,11.8,21.7,26.6c-0.3,14.9,11.6,27.3,26.6,27.5c0.2,0,0.3,0,0.5,0c1.7,0,3.4-0.2,5-0.5c-23.4-27.9,0.9-53,0.9-53C52.9,0.3,51.1,0,49.2,0C49,0,48.9,0,48.7,0"></path></g><g id="SvgjsG1473" featurekey="text1" fill="#1062c8" transform="matrix(3.2858710577889085,0,0,3.2858710577889085,-1.6429355288944543,86.74698213756352)"><path d="M4.96 11.58 c3.98 0 6.62 1.9 6.62 6.2 c0 4.22 -2.92 6.22 -5.64 6.22 c-1.06 0 -2.04 -0.3 -2.9 -0.3 c-0.9 0 -1.52 0.08 -2.54 0.3 l0 -0.54 c1 -0.24 1.4 -0.4 1.4 -0.92 l0 -9.34 c0 -0.62 -0.28 -1 -1.36 -1.12 l0 -0.5 c1.74 0.08 2.86 0 4.42 0 z M5.62 23.38 c2.92 0.06 3.92 -2.28 3.92 -5.58 c0 -3.14 -1.28 -5.7 -4.4 -5.64 c-0.36 0 -0.78 0 -1.36 0.04 l0 10.18 c0 0.8 0.8 0.98 1.84 1 z M20.64 22.1 c0 0.68 0.4 0.82 1.18 0.74 l0 0.56 c-1.56 0.36 -2.1 0.84 -2.6 0.84 c-0.26 0 -0.42 -0.14 -0.4 -0.48 l0.1 -1.52 c-0.48 0.88 -1.48 2 -3.12 2 c-1.34 0 -2.92 -0.66 -2.92 -2.54 c0 -1.74 1.1 -3 5.94 -4.02 l0 -0.6 c0 -1.9 -0.02 -2.76 -1.12 -2.76 c-3.12 0 -1.64 2.98 -3.26 2.98 c-0.58 0 -0.86 -0.36 -0.86 -0.84 c0 -1.44 1.84 -2.66 4.14 -2.66 c2.36 0 2.92 0.84 2.92 3.28 l0 5.02 z M16.42 23.42 c1.32 0 2.14 -1.38 2.4 -2.02 l0 -3.16 c-3.68 0.82 -4 2.42 -4 3.36 c0 1.1 0.6 1.82 1.6 1.82 z M24.46 12.1 c-0.52 0 -1 -0.44 -1 -1 c0 -0.52 0.48 -0.98 1 -0.98 c0.54 0 1 0.46 1 0.98 c0 0.56 -0.46 1 -1 1 z M25.54 22.74 c0 0.5 0.54 0.66 1.18 0.74 l0 0.52 c-1.4 -0.06 -2.78 -0.06 -4.18 0 l0 -0.52 c0.66 -0.08 1.18 -0.24 1.18 -0.74 l0 -6.92 c0 -0.66 -0.42 -0.84 -1.2 -0.8 l0 -0.52 c1.58 -0.22 2.22 -0.74 2.62 -0.74 c0.3 0 0.52 0.12 0.52 0.48 c0 0.52 -0.12 1.24 -0.12 2.48 l0 6.02 z M30.220000000000002 22.4 c0 0.68 0.4 0.88 1.18 0.76 l0 0.5 c-1.54 0.34 -2.08 0.58 -2.58 0.58 c-0.28 0 -0.4 -0.16 -0.4 -0.46 l0 -11.44 c0 -0.66 -0.42 -0.84 -1.2 -0.76 l0 -0.5 c1.54 -0.26 2.2 -0.9 2.62 -0.9 c0.24 0 0.38 0.14 0.38 0.48 l0 11.74 z M42.24 13.98 l0 0.5 l-0.46 0.06 c-0.38 0.1 -0.82 0.14 -0.98 0.62 l-4.72 12.9 c-0.08 0.18 -0.14 0.32 -0.5 0.32 c-0.42 0 -0.56 -0.14 -0.46 -0.32 c0.34 -0.78 1.84 -4.14 1.84 -4.24 c0 -0.34 -2.38 -5.76 -3.56 -8.66 c-0.22 -0.48 -0.42 -0.6 -0.7 -0.62 l-0.6 -0.06 l0 -0.5 c1.46 0.06 3.06 0.06 4.3 0 l0 0.5 l-0.66 0.06 c-0.28 0.02 -0.66 0.16 -0.48 0.62 l2.56 6.44 l2.3 -6.44 c0.16 -0.46 -0.34 -0.58 -0.6 -0.62 l-0.52 -0.06 l0 -0.5 c1.06 0.06 1.98 0.06 3.24 0 z  M57.44 20.64 l0.68 0 c-0.46 1.76 -1.72 3.62 -4.68 3.62 c-3.4 0 -5.8 -2.84 -5.8 -6.54 c0 -3.68 2.28 -6.46 5.6 -6.46 c1.48 0 1.86 0.38 3.08 0.38 c0.2 0 0.32 0 0.6 -0.04 c0.22 1.14 0.5 2.18 1.04 3.4 l-0.92 0 c-0.82 -1.98 -2 -3.16 -4.16 -3.16 c-1.5 0 -3.2 1.28 -3.2 5.32 c0 3.8 1.6 6.42 3.96 6.42 c1.9 0 3.16 -0.94 3.8 -2.94 z M63.559999999999995 13.82 c2.34 0 4.52 1.84 4.52 5.08 c0 3.36 -2.18 5.3 -4.44 5.3 c-2.34 0 -4.52 -1.94 -4.52 -5.14 c0 -3.4 2.18 -5.24 4.44 -5.24 z M66.03999999999999 19.38 c0 -2.96 -1.08 -5.02 -2.76 -5.02 c-1.34 0 -2.16 1.3 -2.16 4.22 c0 2.96 1.08 5.04 2.78 5.04 c1.34 0 2.14 -1.3 2.14 -4.24 z M77.97999999999999 22.08 c0 0.68 0.4 0.82 1.18 0.74 l0 0.58 c-1.56 0.36 -2.12 0.84 -2.62 0.84 c-0.26 0 -0.42 -0.2 -0.4 -0.52 l0.18 -1.3 c-0.28 0.78 -1.12 1.78 -2.82 1.78 c-2.22 0 -4.22 -1.9 -4.22 -5.32 c0 -3.22 2.14 -5.06 4.2 -5.06 c1.38 0 2.12 0.72 2.66 1.38 l0 -2.76 c0 -0.68 -0.4 -0.84 -1.18 -0.74 l0 -0.6 c1.52 -0.24 2.2 -0.92 2.62 -0.92 c0.26 0 0.4 0.14 0.4 0.48 l0 11.42 z M74 23.62 c1.26 0 2.06 -1.2 2.14 -2.12 l0 -5.62 c-0.54 -0.74 -1.32 -1.52 -2.42 -1.52 c-1.58 0 -2.42 1.34 -2.42 4.16 c0 2.66 0.94 5.1 2.7 5.1 z M81.89999999999999 12.1 c-0.52 0 -1 -0.44 -1 -1 c0 -0.52 0.48 -0.98 1 -0.98 c0.54 0 1 0.46 1 0.98 c0 0.56 -0.46 1 -1 1 z M82.97999999999999 22.74 c0 0.5 0.54 0.66 1.18 0.74 l0 0.52 c-1.4 -0.06 -2.78 -0.06 -4.18 0 l0 -0.52 c0.66 -0.08 1.18 -0.24 1.18 -0.74 l0 -6.92 c0 -0.66 -0.42 -0.84 -1.2 -0.8 l0 -0.52 c1.58 -0.22 2.22 -0.74 2.62 -0.74 c0.3 0 0.52 0.12 0.52 0.48 c0 0.52 -0.12 1.24 -0.12 2.48 l0 6.02 z M93.93999999999998 22.74 c0 0.5 0.54 0.66 1.2 0.74 l0 0.52 c-1.4 -0.06 -2.8 -0.06 -4.18 0 l0 -0.52 c0.64 -0.08 1.16 -0.24 1.16 -0.74 l0 -5.52 c0 -1.58 -0.3 -2.62 -1.4 -2.62 c-1.48 0 -2.62 1.54 -2.84 1.9 l0 6.24 c0 0.5 0.54 0.66 1.18 0.74 l0 0.52 c-1.38 -0.06 -2.78 -0.06 -4.18 0 l0 -0.52 c0.66 -0.08 1.18 -0.24 1.18 -0.74 l0 -6.8 c0 -0.68 -0.42 -0.86 -1.2 -0.76 l0 -0.52 c1.54 -0.24 2.22 -0.9 2.6 -0.9 c0.28 0 0.46 0.18 0.42 0.5 l-0.18 1.7 c0.38 -0.58 1.64 -2.16 3.48 -2.16 c1.66 0 2.76 0.68 2.76 3.42 l0 5.52 z M104.61999999999998 13.84 c0.78 0 0.86 0.28 0.86 0.82 c0 0.46 -0.1 0.72 -0.5 0.68 c-0.4 -0.06 -0.62 -0.12 -0.84 -0.12 c-0.42 0 -0.48 0.28 -0.38 0.56 c0.2 0.46 0.36 0.96 0.36 1.58 c0 1.94 -1.46 3.56 -3.84 3.56 c-0.84 0 -1.48 -0.28 -2.14 -0.28 c-0.56 0 -0.8 0.28 -0.8 0.58 c0 0.5 0.66 0.72 1.84 0.9 l2.44 0.38 c2.24 0.32 3.38 0.98 3.38 2.68 c0 1.9 -2.04 3.16 -4.6 3.16 c-2.64 0 -4.4 -1.02 -4.4 -2.84 c0 -0.82 0.34 -1.52 1.14 -1.52 c0.54 0 0.84 0.26 0.84 0.72 c0 0.52 -0.2 0.66 -0.2 1.44 c0 0.86 0.96 1.68 2.66 1.68 c2.06 0 3 -0.94 3 -2.38 c0 -0.94 -0.58 -1.22 -1.84 -1.46 l-3.22 -0.54 c-1.74 -0.32 -2.34 -0.92 -2.34 -1.76 s0.76 -1.5 2.1 -1.4 c-1.02 -0.58 -1.74 -1.66 -1.74 -2.92 c0 -1.92 1.32 -3.54 3.82 -3.54 c1.62 0 2.48 0.72 3.02 1.34 c0.18 -0.78 0.58 -1.32 1.38 -1.32 z M100.25999999999999 20.34 c1.52 0 2 -1.56 2 -2.96 c0 -1.38 -0.5 -3.02 -2 -3.02 c-1.48 0 -2 1.64 -2 3.02 c0 1.4 0.52 2.96 2 2.96 z  M114.16 19 l0 3.76 c0 0.5 0.34 0.64 1.4 0.72 l0 0.52 c-1.56 -0.06 -3.12 -0.06 -4.68 0 l0 -0.52 c1.06 -0.08 1.4 -0.22 1.4 -0.72 l0 -9.56 c0 -0.58 -0.28 -1 -1.36 -1.12 l0 -0.5 c1.74 0.08 3.62 0 4.84 0 c4.02 0 4.92 1.66 4.92 3.32 c0 1.82 -1.48 3.34 -5.94 4.02 z M114.16 18.42 l0.64 -0.1 c3.06 -0.42 3.94 -1.72 3.94 -3.5 c0 -1.42 -0.84 -2.64 -2.78 -2.64 l-1.8 0 l0 6.24 z M127.44 13.78 c1 0 1.6 0.48 1.6 1.08 c0 0.56 -0.34 0.96 -0.88 0.96 c-0.92 0 -0.76 -0.92 -1.72 -0.92 c-1.16 0 -1.7 1.54 -1.86 1.9 l0 5.94 c0 0.5 0.56 0.66 1.16 0.74 l0 0.52 c-1.4 -0.08 -2.76 -0.08 -4.16 0 l0 -0.52 c0.66 -0.08 1.2 -0.24 1.2 -0.74 l0 -6.78 c0 -0.68 -0.42 -0.86 -1.2 -0.76 l0 -0.52 c1.54 -0.24 2.18 -0.92 2.58 -0.92 c0.28 0 0.44 0.18 0.42 0.5 l-0.3 1.92 c0.68 -1.42 1.58 -2.4 3.16 -2.4 z M134.27999999999997 13.82 c2.34 0 4.52 1.84 4.52 5.08 c0 3.36 -2.18 5.3 -4.44 5.3 c-2.34 0 -4.52 -1.94 -4.52 -5.14 c0 -3.4 2.18 -5.24 4.44 -5.24 z M136.76 19.38 c0 -2.96 -1.08 -5.02 -2.76 -5.02 c-1.34 0 -2.16 1.3 -2.16 4.22 c0 2.96 1.08 5.04 2.78 5.04 c1.34 0 2.14 -1.3 2.14 -4.24 z M145.42 13.82 c2.26 0 4.18 1.78 4.18 5.24 c0 3.34 -2.06 5.16 -4.22 5.16 c-1.56 0 -2.04 -0.98 -2.9 -0.98 c-0.46 0 -0.78 0.26 -0.94 0.76 l-0.32 0 c-0.22 0 -0.32 -0.14 -0.32 -0.36 l0 -11.3 c0 -0.66 -0.42 -0.84 -1.2 -0.76 l0 -0.5 c1.54 -0.26 2.22 -0.9 2.62 -0.9 c0.26 0 0.4 0.14 0.4 0.48 l0 4.46 c0.54 -0.66 1.5 -1.3 2.7 -1.3 z M145.26 23.7 c1.66 0 2.4 -1.36 2.4 -4.18 s-0.78 -5.12 -2.54 -5.12 c-1.08 0 -1.92 0.76 -2.4 1.4 l0 5.74 c0.04 0.78 1.16 2.16 2.54 2.16 z M153.39999999999998 22.4 c0 0.68 0.4 0.88 1.18 0.76 l0 0.5 c-1.54 0.34 -2.08 0.58 -2.58 0.58 c-0.28 0 -0.4 -0.16 -0.4 -0.46 l0 -11.44 c0 -0.66 -0.42 -0.84 -1.2 -0.76 l0 -0.5 c1.54 -0.26 2.2 -0.9 2.62 -0.9 c0.24 0 0.38 0.14 0.38 0.48 l0 11.74 z M163.39999999999998 21.86 c0.14 0 0.22 0.14 0.14 0.34 c-0.46 1.08 -1.54 2 -3.28 2 c-2.62 0 -4.68 -1.82 -4.68 -5.2 c0 -3.28 2.12 -5.18 4.46 -5.18 c2.1 0 3.96 1.46 3.96 4.18 c0 0.66 -0.24 1.06 -0.9 1.06 l-5.48 0 c0.02 2.86 1.14 4.56 2.88 4.56 c0.98 0 1.74 -0.44 2.26 -1.46 c0.08 -0.18 0.14 -0.3 0.34 -0.3 l0.3 0 z M162.2 18.5 c0 -2.58 -0.64 -4.14 -2.14 -4.14 c-1.54 0 -2.42 1.58 -2.44 4.14 l4.58 0 z M179.48 22.74 c0 0.5 0.54 0.66 1.18 0.74 l0 0.52 c-1.38 -0.06 -2.78 -0.06 -4.18 0 l0 -0.52 c0.66 -0.08 1.18 -0.24 1.18 -0.74 l0 -5.76 c0 -1.42 -0.3 -2.38 -1.28 -2.38 c-1.32 0 -2.4 1.32 -2.68 1.92 l0 6.22 c0 0.5 0.54 0.66 1.18 0.74 l0 0.52 c-1.38 -0.06 -2.78 -0.06 -4.18 0 l0 -0.52 c0.66 -0.08 1.18 -0.24 1.18 -0.74 l0 -5.76 c0 -1.42 -0.3 -2.38 -1.3 -2.38 c-1.32 0 -2.38 1.32 -2.66 1.92 l0 6.22 c0 0.5 0.54 0.66 1.18 0.74 l0 0.52 c-1.38 -0.06 -2.78 -0.06 -4.18 0 l0 -0.52 c0.66 -0.08 1.18 -0.24 1.18 -0.74 l0 -6.8 c0 -0.68 -0.42 -0.86 -1.2 -0.76 l0 -0.52 c1.54 -0.24 2.22 -0.9 2.64 -0.9 c0.24 0 0.42 0.18 0.38 0.5 l-0.18 1.66 c0.42 -0.68 1.5 -2.12 3.48 -2.12 c1.24 0 2.14 0.74 2.36 2.12 c0.38 -0.7 1.46 -2.12 3.46 -2.12 c1.66 0 2.44 0.94 2.44 2.98 l0 5.96 z"></path></g></svg>
